# File created by Blade
# Date/Time:  Thu Jan 22 16:31:11 2015
# Frame Rate: 120.000 fps
#------------------------------------------------------
:FULLY-SPECIFIED
:DEGREES
1197
root 2.144436 37.372336 2.511856 -2.118954 -3.495683 2.327602
RightUpLeg 11.077714 0.425455 -2.501595
RightLeg -6.179939 -0.000000 0.000000
RightFoot -11.378994 -16.096449 17.984339
RightToeBase 14.856948 -0.000000 -0.000000
LeftUpLeg 9.017465 -2.969290 -1.280513
LeftLeg -2.728965 -0.000000 0.000000
LeftFoot -8.317776 13.990164 -17.421230
LeftToeBase 9.924018 -0.000000 -0.000000
Spine 9.162328 -4.004274 -3.514997
RightShoulder -7.000640 -9.753255 -27.404142
RightArm 6.587326 24.991027 25.863262
RightForeArm 7.964663 0.000000 13.607591
RightHand 2.552643 -0.000000 -3.413764
RightHandThumb1 -24.326973 -0.000000 -32.862282
LeftShoulder -25.989557 30.005683 17.504175
LeftArm 37.626340 -50.423355 -45.515987
LeftForeArm 36.877958 -0.000000 2.380608
LeftHand -16.769758 -0.000000 -0.658704
LeftHandThumb1 -26.253704 0.000000 33.147579
Head -12.379111 13.290949 3.991316
1198
root 2.150437 37.372194 2.510724 -2.102483 -3.473820 2.330578
RightUpLeg 11.055066 0.389757 -2.514530
RightLeg -6.166891 -0.000000 0.000000
RightFoot -11.392554 -16.082108 18.004021
RightToeBase 14.922319 -0.000000 -0.000000
LeftUpLeg 9.016745 -3.012711 -1.296141
LeftLeg -2.768231 -0.000000 0.000000
LeftFoot -8.297532 14.028637 -17.395540
LeftToeBase 9.930066 -0.000000 -0.000000
Spine 9.166474 -4.009931 -3.523673
RightShoulder -7.012673 -9.734636 -27.416484
RightArm 6.573686 25.039211 25.836673
RightForeArm 7.937695 0.000000 13.631895
RightHand 2.528914 -0.000000 -3.369603
RightHandThumb1 -24.326973 -0.000000 -32.862282
LeftShoulder -26.005469 30.013750 17.506451
LeftArm 37.653976 -50.445613 -45.550390
LeftForeArm 36.896968 -0.000000 2.399708
LeftHand -16.693991 -0.000000 -0.598020
LeftHandThumb1 -26.253704 0.000000 33.147579
Head -12.416152 13.298169 3.999095
1199
root 2.156503 37.371801 2.510494 -2.095089 -3.457263 2.329172
RightUpLeg 11.047239 0.381018 -2.519815
RightLeg -6.161240 -0.000000 0.000000
RightFoot -11.402295 -16.092147 18.008879
RightToeBase 14.898876 -0.000000 -0.000000
LeftUpLeg 9.024763 -3.040312 -1.305642
LeftLeg -2.800862 -0.000000 0.000000
LeftFoot -8.296376 14.045002 -17.404521
LeftToeBase 9.952841 -0.000000 -0.000000
Spine 9.182339 -4.002537 -3.529009
RightShoulder -7.028779 -9.702436 -27.421857
RightArm 6.553032 25.050444 25.802155
RightForeArm 7.973969 -0.000000 13.651740
RightHand 2.656814 -0.000000 -3.433486
RightHandThumb1 -24.326973 -0.000000 -32.862282
LeftShoulder -26.010281 30.008774 17.510510
LeftArm 37.647267 -50.448665 -45.536525
LeftForeArm 36.907755 -0.000000 2.413548
LeftHand -16.651227 -0.000000 -0.640296
LeftHandThumb1 -26.253704 0.000000 33.147579
Head -12.461336 13.295693 4.014650
1200
root 2.162815 37.370832 2.509432 -2.084799 -3.437728 2.330874
RightUpLeg 11.031696 0.361782 -2.530211
RightLeg -6.149479 -0.000000 0.000000
RightFoot -11.412025 -16.109162 18.001609
RightToeBase 14.859997 -0.000000 -0.000000
LeftUpLeg 9.028405 -3.054576 -1.318363
LeftLeg -2.834927 -0.000000 0.000000
LeftFoot -8.283504 14.062218 -17.359293
LeftToeBase 9.957456 -0.000000 -0.000000
Spine 9.199286 -3.994655 -3.540081
RightShoulder -7.052239 -9.676973 -27.419695
RightArm 6.542265 25.080200 25.779378
RightForeArm 7.977698 -0.000000 13.672737
RightHand 2.629990 -0.000000 -3.349705
RightHandThumb1 -24.326973 -0.000000 -32.862282
LeftShoulder -26.014806 30.020050 17.513572
LeftArm 37.650154 -50.448854 -45.530675
LeftForeArm 36.900291 -0.000000 2.428613
LeftHand -16.616711 -0.000000 -0.657526
LeftHandThumb1 -26.253704 0.000000 33.147579
Head -12.516234 13.253190 4.019315
1201
root 2.168765 37.370156 2.508338 -2.074546 -3.411247 2.332084
RightUpLeg 11.020408 0.345109 -2.539517
RightLeg -6.143953 -0.000000 0.000000
RightFoot -11.423622 -16.117911 18.014553
RightToeBase 14.886599 -0.000000 -0.000000
LeftUpLeg 9.026625 -3.064944 -1.325674
LeftLeg -2.859589 -0.000000 0.000000
LeftFoot -8.270996 14.040825 -17.366340
LeftToeBase 9.966475 -0.000000 -0.000000
Spine 9.220824 -4.010205 -3.554777
RightShoulder -7.065595 -9.683665 -27.412405
RightArm 6.556611 25.087051 25.758559
RightForeArm 8.044052 -0.000000 13.677353
RightHand 2.706181 -0.000000 -3.375280
RightHandThumb1 -24.326973 -0.000000 -32.862282
LeftShoulder -26.034217 30.035814 17.501275
LeftArm 37.635179 -50.444902 -45.501803
LeftForeArm 36.896104 -0.000000 2.449007
LeftHand -16.580917 0.000000 -0.714106
LeftHandThumb1 -26.253704 0.000000 33.147579
Head -12.592970 13.246033 4.029075
1202
root 2.175311 37.369883 2.506639 -2.060738 -3.383941 2.336726
RightUpLeg 11.000280 0.326516 -2.551680
RightLeg -6.127242 -0.000000 0.000000
RightFoot -11.458282 -16.126435 18.042611
RightToeBase 14.908780 -0.000000 -0.000000
LeftUpLeg 9.017913 -3.062015 -1.337268
LeftLeg -2.880479 -0.000000 0.000000
LeftFoot -8.245794 14.023169 -17.330191
LeftToeBase 9.956357 -0.000000 -0.000000
Spine 9.237124 -4.022848 -3.574392
RightShoulder -7.071299 -9.690935 -27.394958
RightArm 6.557236 25.137446 25.734045
RightForeArm 8.066941 -0.000000 13.698326
RightHand 2.713959 -0.000000 -3.286507
RightHandThumb1 -24.326973 -0.000000 -32.862282
LeftShoulder -26.058163 30.081457 17.476770
LeftArm 37.665159 -50.475812 -45.521768
LeftForeArm 36.898236 -0.000000 2.483185
LeftHand -16.507810 -0.000000 -0.793700
LeftHandThumb1 -26.253704 0.000000 33.147579
Head -12.651498 13.223395 4.049600
1203
root 2.181815 37.368896 2.505101 -2.048603 -3.360930 2.341492
RightUpLeg 10.981154 0.302017 -2.565636
RightLeg -6.111445 -0.000000 0.000000
RightFoot -11.481547 -16.138033 18.042774
RightToeBase 14.898030 -0.000000 -0.000000
LeftUpLeg 9.012288 -3.049573 -1.347072
LeftLeg -2.906348 -0.000000 0.000000
LeftFoot -8.229611 13.997219 -17.313915
LeftToeBase 9.949621 -0.000000 -0.000000
Spine 9.252717 -4.023036 -3.591749
RightShoulder -7.078957 -9.680353 -27.381346
RightArm 6.552020 25.139680 25.706834
RightForeArm 8.086443 0.000000 13.700132
RightHand 2.785351 0.000000 -3.320154
RightHandThumb1 -24.326973 -0.000000 -32.862282
LeftShoulder -26.070024 30.124458 17.457068
LeftArm 37.718310 -50.510444 -45.553814
LeftForeArm 36.897692 -0.000000 2.491502
LeftHand -16.515268 -0.000000 -0.859096
LeftHandThumb1 -26.253704 0.000000 33.147579
Head -12.712405 13.205311 4.065201
1204
root 2.187798 37.368382 2.503679 -2.040870 -3.337407 2.338369
RightUpLeg 10.969005 0.287977 -2.568870
RightLeg -6.101179 -0.000000 0.000000
RightFoot -11.504802 -16.156837 18.024105
RightToeBase 14.975772 -0.000000 -0.000000
LeftUpLeg 9.014291 -3.059799 -1.350701
LeftLeg -2.931273 -0.000000 0.000000
LeftFoot -8.219459 13.983448 -17.289213
LeftToeBase 9.978137 -0.000000 -0.000000
Spine 9.276242 -4.021971 -3.596324
RightShoulder -7.079759 -9.667124 -27.384677
RightArm 6.535845 25.155790 25.694096
RightForeArm 8.065456 -0.000000 13.702304
RightHand 2.797116 -0.000000 -3.277240
RightHandThumb1 -24.326973 -0.000000 -32.862282
LeftShoulder -26.062700 30.137662 17.455953
LeftArm 37.728620 -50.524906 -45.564568
LeftForeArm 36.887759 -0.000000 2.489655
LeftHand -16.462776 -0.000000 -0.859763
LeftHandThumb1 -26.253704 0.000000 33.147579
Head -12.774081 13.183086 4.073727
1205
root 2.195160 37.367591 2.503053 -2.036573 -3.309146 2.340966
RightUpLeg 10.958822 0.232178 -2.588036
RightLeg -6.080495 -0.000000 0.000000
RightFoot -11.503428 -16.109132 18.062093
RightToeBase 14.919493 -0.000000 -0.000000
LeftUpLeg 9.019478 -3.048733 -1.362419
LeftLeg -2.959966 -0.000000 0.000000
LeftFoot -8.198521 13.972109 -17.257058
LeftToeBase 10.009282 -0.000000 -0.000000
Spine 9.297009 -4.024758 -3.603347
RightShoulder -7.066257 -9.640618 -27.387315
RightArm 6.517971 25.142638 25.675103
RightForeArm 8.059503 -0.000000 13.679916
RightHand 2.730412 -0.000000 -3.340103
RightHandThumb1 -24.326973 -0.000000 -32.862282
LeftShoulder -26.045952 30.132587 17.462316
LeftArm 37.729724 -50.522682 -45.560282
LeftForeArm 36.863210 -0.000000 2.479307
LeftHand -16.480160 0.000000 -0.910664
LeftHandThumb1 -26.253704 0.000000 33.147579
Head -12.817167 13.119585 4.076722
1206
root 2.201444 37.367247 2.502350 -2.032529 -3.274850 2.341522
RightUpLeg 10.955016 0.202721 -2.595472
RightLeg -6.083485 -0.000000 0.000000
RightFoot -11.498714 -16.169007 17.996790
RightToeBase 14.940716 -0.000000 -0.000000
LeftUpLeg 9.020106 -3.055036 -1.367490
LeftLeg -2.978000 -0.000000 0.000000
LeftFoot -8.183284 13.934596 -17.275440
LeftToeBase 9.964872 -0.000000 -0.000000
Spine 9.316846 -4.027180 -3.604634
RightShoulder -7.044588 -9.621103 -27.404455
RightArm 6.478295 25.099263 25.662524
RightForeArm 8.085532 -0.000000 13.659866
RightHand 2.767398 -0.000000 -3.414797
RightHandThumb1 -24.326973 -0.000000 -32.862282
LeftShoulder -26.021856 30.129472 17.481693
LeftArm 37.755898 -50.502457 -45.594295
LeftForeArm 36.915771 -0.000000 2.455175
LeftHand -16.562159 -0.000000 -0.620200
LeftHandThumb1 -26.253704 0.000000 33.147579
Head -12.849675 13.065566 4.068918
